<svg width="22" height="21" viewBox="0 0 22 21" fill="none" xmlns="http://www.w3.org/2000/svg">
<path d="M21.84 5.04V2.52C21.84 1.85165 21.5745 1.21068 21.1019 0.738091C20.6293 0.265499 19.9883 0 19.32 0H2.52C1.85165 0 1.21068 0.265499 0.738091 0.738091C0.265499 1.21068 0 1.85165 0 2.52V5.04H21.84ZM3.08 1.68H5.04C5.26278 1.68 5.47644 1.7685 5.63397 1.92603C5.7915 2.08356 5.88 2.29722 5.88 2.52C5.88 2.74278 5.7915 2.95644 5.63397 3.11397C5.47644 3.2715 5.26278 3.36 5.04 3.36H3.08C2.85722 3.36 2.64356 3.2715 2.48603 3.11397C2.3285 2.95644 2.24 2.74278 2.24 2.52C2.24 2.29722 2.3285 2.08356 2.48603 1.92603C2.64356 1.7685 2.85722 1.68 3.08 1.68Z" fill="#616971"/>
<path d="M0 6.72001V17.64C0 18.3084 0.265499 18.9493 0.738091 19.4219C1.21068 19.8945 1.85165 20.16 2.52 20.16H19.32C19.9883 20.16 20.6293 19.8945 21.1019 19.4219C21.5745 18.9493 21.84 18.3084 21.84 17.64V6.72001H0Z" fill="#616971"/>
</svg>
