<svg width="51" height="30" viewBox="0 0 51 30" fill="none" xmlns="http://www.w3.org/2000/svg">
<rect width="51" height="30" rx="4" fill="#343A40"/>
<path d="M11.6797 21.9766H10L14.1875 9.625H15.8672L11.6797 21.9766Z" fill="#F8F9FA"/>
<path d="M19.3359 21H17.0703V9H19.3359V21Z" fill="#F8F9FA"/>
<path d="M23.5859 21H21.3203V12.5469H23.5859V21ZM21.1875 10.3594C21.1875 10.0208 21.2995 9.74219 21.5234 9.52344C21.7526 9.30469 22.0625 9.19531 22.4531 9.19531C22.8385 9.19531 23.1458 9.30469 23.375 9.52344C23.6042 9.74219 23.7188 10.0208 23.7188 10.3594C23.7188 10.7031 23.6016 10.9844 23.3672 11.2031C23.138 11.4219 22.8333 11.5312 22.4531 11.5312C22.0729 11.5312 21.7656 11.4219 21.5312 11.2031C21.3021 10.9844 21.1875 10.7031 21.1875 10.3594Z" fill="#F8F9FA"/>
<path d="M33.0703 16.8516C33.0703 18.2057 32.7812 19.263 32.2031 20.0234C31.625 20.7786 30.8177 21.1562 29.7812 21.1562C28.8646 21.1562 28.1328 20.8047 27.5859 20.1016L27.4844 21H25.4531V9H27.7109V13.3047C28.2318 12.6953 28.9167 12.3906 29.7656 12.3906C30.7969 12.3906 31.6042 12.7708 32.1875 13.5312C32.776 14.2865 33.0703 15.3516 33.0703 16.7266V16.8516ZM30.8125 16.6875C30.8125 15.8333 30.6771 15.2109 30.4062 14.8203C30.1354 14.4245 29.7318 14.2266 29.1953 14.2266C28.4766 14.2266 27.9818 14.5208 27.7109 15.1094V18.4453C27.987 19.0391 28.487 19.3359 29.2109 19.3359C29.9401 19.3359 30.4193 18.9766 30.6484 18.2578C30.7578 17.9141 30.8125 17.3906 30.8125 16.6875Z" fill="#F8F9FA"/>
<path d="M39.0469 18.6641C39.0469 18.388 38.9089 18.1719 38.6328 18.0156C38.362 17.8542 37.9245 17.7109 37.3203 17.5859C35.3099 17.1641 34.3047 16.3099 34.3047 15.0234C34.3047 14.2734 34.6146 13.6484 35.2344 13.1484C35.8594 12.6432 36.6745 12.3906 37.6797 12.3906C38.7526 12.3906 39.6094 12.6432 40.25 13.1484C40.8958 13.6536 41.2188 14.3099 41.2188 15.1172H38.9609C38.9609 14.7943 38.8568 14.5286 38.6484 14.3203C38.4401 14.1068 38.1146 14 37.6719 14C37.2917 14 36.9974 14.0859 36.7891 14.2578C36.5807 14.4297 36.4766 14.6484 36.4766 14.9141C36.4766 15.1641 36.5938 15.3672 36.8281 15.5234C37.0677 15.6745 37.4688 15.8073 38.0312 15.9219C38.5938 16.0312 39.0677 16.1562 39.4531 16.2969C40.6458 16.7344 41.2422 17.4922 41.2422 18.5703C41.2422 19.3411 40.9115 19.9661 40.25 20.4453C39.5885 20.9193 38.7344 21.1562 37.6875 21.1562C36.9792 21.1562 36.349 21.0312 35.7969 20.7812C35.25 20.526 34.8203 20.1797 34.5078 19.7422C34.1953 19.2995 34.0391 18.8229 34.0391 18.3125H36.1797C36.2005 18.7135 36.349 19.0208 36.625 19.2344C36.901 19.4479 37.2708 19.5547 37.7344 19.5547C38.1667 19.5547 38.4922 19.474 38.7109 19.3125C38.9349 19.1458 39.0469 18.9297 39.0469 18.6641Z" fill="#F8F9FA"/>
</svg>
