<svg width="8" height="8" viewBox="0 0 8 8" fill="none" xmlns="http://www.w3.org/2000/svg">
<path d="M6.66667 1.42083L2.375 5.7125C2.33733 5.75583 2.29112 5.79091 2.23925 5.81553C2.18738 5.84016 2.13099 5.8538 2.0736 5.8556C2.01622 5.8574 1.95908 5.84732 1.90577 5.82599C1.85247 5.80467 1.80414 5.77255 1.76383 5.73167C1.72352 5.69078 1.6921 5.64201 1.67153 5.5884C1.65096 5.5348 1.64169 5.47752 1.64431 5.42017C1.64692 5.36281 1.66136 5.30662 1.68672 5.25511C1.71208 5.2036 1.74781 5.15788 1.79167 5.12083L6.075 0.833333H4.58333C4.47283 0.833333 4.36685 0.789435 4.28871 0.711294C4.21057 0.633154 4.16667 0.527174 4.16667 0.416667C4.16667 0.30616 4.21057 0.200179 4.28871 0.122039C4.36685 0.0438987 4.47283 0 4.58333 0H7.08333C7.19384 0 7.29982 0.0438987 7.37796 0.122039C7.4561 0.200179 7.5 0.30616 7.5 0.416667V2.91667C7.5 3.02717 7.4561 3.13315 7.37796 3.21129C7.29982 3.28943 7.19384 3.33333 7.08333 3.33333C6.97283 3.33333 6.86685 3.28943 6.7887 3.21129C6.71057 3.13315 6.66667 3.02717 6.66667 2.91667V1.42083ZM5.83333 4.58333C5.83333 4.47283 5.87723 4.36685 5.95537 4.28871C6.03351 4.21057 6.13949 4.16667 6.25 4.16667C6.36051 4.16667 6.46649 4.21057 6.54463 4.28871C6.62277 4.36685 6.66667 4.47283 6.66667 4.58333V6.66667C6.66667 6.88768 6.57887 7.09964 6.42259 7.25592C6.26631 7.4122 6.05435 7.5 5.83333 7.5H0.833333C0.61232 7.5 0.400358 7.4122 0.244078 7.25592C0.0877973 7.09964 0 6.88768 0 6.66667V1.66667C0 1.20833 0.375 0.833333 0.833333 0.833333H2.91667C3.02717 0.833333 3.13315 0.877232 3.21129 0.955372C3.28943 1.03351 3.33333 1.13949 3.33333 1.25C3.33333 1.36051 3.28943 1.46649 3.21129 1.54463C3.13315 1.62277 3.02717 1.66667 2.91667 1.66667H0.833333V6.66667H5.83333V4.58333Z" fill="#D0D2D4"/>
</svg>
